<svg version="1.1" id="Layer_1" xmlns="http://www.w3.org/2000/svg" xmlns:xlink="http://www.w3.org/1999/xlink" x="0px" y="0px" width="100%" viewBox="0 0 64 64" enable-background="new 0 0 64 64" xml:space="preserve">
<path fill="none" opacity="1.000000" stroke="none" 
	d="
M41.000072,65.000000 
	C27.333387,65.000000 14.166720,65.000000 1.000040,65.000000 
	C1.000027,43.666683 1.000027,22.333368 1.000013,1.000040 
	C22.333315,1.000027 43.666630,1.000027 64.999954,1.000013 
	C64.999969,22.333315 64.999969,43.666630 64.999985,64.999969 
	C57.166698,65.000000 49.333393,65.000000 41.000072,65.000000 
M35.084244,41.555119 
	C35.369972,41.775402 35.655701,41.995682 36.150581,42.792336 
	C36.709980,43.385967 37.269379,43.979599 38.008739,45.147480 
	C38.270912,45.443314 38.533089,45.739147 38.350990,46.619755 
	C37.134624,47.349934 35.918262,48.080109 34.009563,48.932846 
	C31.679310,49.991566 29.349056,51.050285 26.293619,52.183887 
	C22.880772,53.662457 19.467922,55.141022 15.850257,56.708324 
	C16.945629,59.172100 17.785456,61.061085 18.755032,63.241913 
	C22.514931,61.524750 25.856215,59.998772 29.902426,58.302246 
	C31.957737,57.255589 34.013050,56.208931 36.803173,55.063107 
	C39.194984,54.026356 41.586792,52.989605 44.689484,51.912857 
	C46.401463,51.122307 48.113441,50.331753 50.989861,49.003494 
	C47.764633,45.508472 45.147369,42.672272 42.221863,39.265274 
	C41.292419,38.135818 40.362972,37.006363 39.169353,35.265213 
	C37.978565,33.796200 36.787777,32.327187 35.262089,30.239006 
	C33.537376,28.106995 31.812664,25.974983 29.835636,23.170992 
	C29.124334,21.749008 28.413034,20.327024 28.379604,18.814156 
	C29.984602,18.042154 31.589600,17.270153 33.892586,16.312542 
	C35.983692,15.343927 38.074799,14.375313 40.877594,13.251124 
	C43.037148,12.231754 45.196701,11.212385 48.016705,10.126893 
	C51.631107,8.549473 48.496700,6.613320 48.083637,4.990664 
	C47.945164,4.446673 46.081467,4.341847 44.328728,4.088362 
	C42.562752,4.940254 40.796772,5.792147 38.315620,6.797472 
	C36.217636,7.766111 34.119652,8.734750 31.311550,9.843342 
	C29.213684,10.815758 27.115818,11.788174 24.279940,12.888721 
	C21.593733,14.069787 18.907528,15.250853 15.075105,16.935884 
	C18.986042,21.382332 22.444218,25.314024 26.092859,29.872181 
	C27.655075,31.776899 29.217291,33.681618 30.989981,36.164524 
	C32.318867,37.790417 33.647747,39.416309 34.998760,41.010029 
	C34.998760,41.010029 34.962299,41.012711 35.084244,41.555119 
z"/>
<path fill="#6521ED" opacity="1.000000" stroke="none" 
	d="
M25.902393,29.245716 
	C22.444218,25.314024 18.986042,21.382332 15.075105,16.935884 
	C18.907528,15.250853 21.593733,14.069787 24.649834,13.195103 
	C25.913731,15.302670 26.807732,17.103855 27.701733,18.905041 
	C28.413034,20.327024 29.124334,21.749008 29.818871,23.828094 
	C28.502199,26.072037 27.202297,27.658876 25.902393,29.245716 
z"/>
<path fill="#6926EE" opacity="1.000000" stroke="none" 
	d="
M29.197498,58.472794 
	C25.856215,59.998772 22.514931,61.524750 18.755032,63.241913 
	C17.785456,61.061085 16.945629,59.172100 15.850257,56.708324 
	C19.467922,55.141022 22.880772,53.662457 26.695507,52.510754 
	C27.797428,54.716011 28.497463,56.594398 29.197498,58.472794 
z"/>
<path fill="#8A51FC" opacity="1.000000" stroke="none" 
	d="
M42.530106,39.836075 
	C45.147369,42.672272 47.764633,45.508472 50.989861,49.003494 
	C48.113441,50.331753 46.401463,51.122307 44.195213,51.610027 
	C42.468365,49.175137 42.921711,45.474361 38.795265,46.034981 
	C38.533089,45.739147 38.270912,45.443314 38.045540,44.495167 
	C39.564930,42.507259 41.047520,41.171669 42.530106,39.836075 
z"/>
<path fill="#7536F3" opacity="1.000000" stroke="none" 
	d="
M29.549961,58.387520 
	C28.497463,56.594398 27.797428,54.716011 27.058098,52.473312 
	C29.349056,51.050285 31.679310,49.991566 34.685963,49.131432 
	C35.597694,51.274105 35.833027,53.218185 36.068359,55.162270 
	C34.013050,56.208931 31.957737,57.255589 29.549961,58.387520 
z"/>
<path fill="#7E41F8" opacity="1.000000" stroke="none" 
	d="
M36.435768,55.112686 
	C35.833027,53.218185 35.597694,51.274105 35.032127,49.070152 
	C35.918262,48.080109 37.134624,47.349934 38.573128,46.327370 
	C42.921711,45.474361 42.468365,49.175137 43.839767,51.630028 
	C41.586792,52.989605 39.194984,54.026356 36.435768,55.112686 
z"/>
<path fill="#702FF2" opacity="1.000000" stroke="none" 
	d="
M28.040668,18.859598 
	C26.807732,17.103855 25.913731,15.302670 25.018841,13.131037 
	C27.115818,11.788174 29.213684,10.815758 31.668158,10.207335 
	C32.414711,12.546935 32.804657,14.522543 33.194603,16.498152 
	C31.589600,17.270153 29.984602,18.042154 28.040668,18.859598 
z"/>
<path fill="#7A3BF6" opacity="1.000000" stroke="none" 
	d="
M33.543594,16.405346 
	C32.804657,14.522543 32.414711,12.546935 32.023216,10.137358 
	C34.119652,8.734750 36.217636,7.766111 38.670742,7.157044 
	C39.405876,9.479978 39.785889,11.443338 40.165901,13.406698 
	C38.074799,14.375313 35.983692,15.343927 33.543594,16.405346 
z"/>
<path fill="#702EF1" opacity="1.000000" stroke="none" 
	d="
M25.997627,29.558949 
	C27.202297,27.658876 28.502199,26.072037 29.945026,24.164083 
	C31.812664,25.974983 33.537376,28.106995 35.018120,30.602581 
	C33.442600,32.506218 32.111053,34.046276 30.779505,35.586334 
	C29.217291,33.681618 27.655075,31.776899 25.997627,29.558949 
z"/>
<path fill="#8448FA" opacity="1.000000" stroke="none" 
	d="
M40.521748,13.328911 
	C39.785889,11.443338 39.405876,9.479978 39.028328,7.080328 
	C40.796772,5.792147 42.562752,4.940254 44.710754,4.437708 
	C45.847271,6.589040 46.601765,8.391026 47.356255,10.193014 
	C45.196701,11.212385 43.037148,12.231754 40.521748,13.328911 
z"/>
<path fill="#793AF5" opacity="1.000000" stroke="none" 
	d="
M30.884743,35.875427 
	C32.111053,34.046276 33.442600,32.506218 35.185570,30.912167 
	C36.787777,32.327187 37.978565,33.796200 38.912548,35.626114 
	C37.429371,37.672073 36.203003,39.357140 34.976631,41.042202 
	C33.647747,39.416309 32.318867,37.790417 30.884743,35.875427 
z"/>
<path fill="#7F42F9" opacity="1.000000" stroke="none" 
	d="
M34.987694,41.026115 
	C36.203003,39.357140 37.429371,37.672073 39.044636,35.931961 
	C40.362972,37.006363 41.292419,38.135818 42.375984,39.550674 
	C41.047520,41.171669 39.564930,42.507259 37.955559,44.208046 
	C37.269379,43.979599 36.709980,43.385967 35.964691,42.244499 
	C35.506630,41.468678 35.234467,41.240696 34.962299,41.012711 
	C34.962299,41.012711 34.998760,41.010029 34.987694,41.026115 
z"/>
<path fill="#8D55FD" opacity="1.000000" stroke="none" 
	d="
M47.686478,10.159953 
	C46.601765,8.391026 45.847271,6.589040 45.049561,4.411670 
	C46.081467,4.341847 47.945164,4.446673 48.083637,4.990664 
	C48.496700,6.613320 51.631107,8.549473 47.686478,10.159953 
z"/>
<path fill="#793AF5" opacity="1.000000" stroke="none" 
	d="
M35.023270,41.283913 
	C35.234467,41.240696 35.506630,41.468678 35.860115,41.956314 
	C35.655701,41.995682 35.369972,41.775402 35.023270,41.283913 
z"/>
</svg>